<svg id="Camada_1" data-name="Camada 1" xmlns="http://www.w3.org/2000/svg" viewBox="0 0 30 25.17"><defs><style>.cls-1{fill:#0808b2;}</style></defs><polygon class="cls-1" points="30 12.48 18.94 12.61 21.08 17.91 30 12.48"/><polygon class="cls-1" points="30 12.48 18.94 12.61 20.94 7.27 30 12.48"/><polygon class="cls-1" points="11.69 12.65 20.9 7.27 18.94 12.61 11.69 12.65"/><polygon class="cls-1" points="11.78 12.65 21.05 17.91 19.02 12.61 11.78 12.65"/><polygon class="cls-1" points="18.35 5.21 7.29 5.33 9.43 10.64 18.35 5.21"/><polygon class="cls-1" points="18.35 5.21 7.29 5.33 9.29 0 18.35 5.21"/><polygon class="cls-1" points="0.04 5.37 9.25 0 7.29 5.33 0.04 5.37"/><polygon class="cls-1" points="0.12 5.37 9.39 10.64 7.37 5.33 0.12 5.37"/><polygon class="cls-1" points="18.31 19.73 7.25 19.86 9.38 25.17 18.31 19.73"/><polygon class="cls-1" points="18.31 19.73 7.25 19.86 9.24 14.53 18.31 19.73"/><polygon class="cls-1" points="0 19.9 9.21 14.53 7.25 19.86 0 19.9"/><polygon class="cls-1" points="0.08 19.9 9.35 25.17 7.33 19.86 0.08 19.9"/></svg>